<svg xmlns="http://www.w3.org/2000/svg" fill="none" viewBox="0 0 60 200" height="200" width="60">
  <g>
    <!-- Curved stem -->
    <path d="M30 195 C28 170, 35 150, 30 130 C25 110, 35 90, 30 70 C25 50, 32 30, 30 10" stroke="white" stroke-width="1.2" fill="none" stroke-linecap="round"/>
    <!-- Round eucalyptus leaves -->
    <circle cx="20" cy="170" r="8" fill="white" opacity="0.9"/>
    <circle cx="42" cy="155" r="7" fill="white" opacity="0.85"/>
    <circle cx="18" cy="138" r="9" fill="white" opacity="0.8"/>
    <circle cx="44" cy="122" r="7.5" fill="white" opacity="0.75"/>
    <circle cx="19" cy="105" r="8" fill="white" opacity="0.7"/>
    <circle cx="42" cy="90" r="6.5" fill="white" opacity="0.65"/>
    <circle cx="20" cy="74" r="7" fill="white" opacity="0.6"/>
    <circle cx="40" cy="60" r="6" fill="white" opacity="0.55"/>
    <circle cx="22" cy="45" r="5.5" fill="white" opacity="0.5"/>
    <circle cx="38" cy="32" r="5" fill="white" opacity="0.45"/>
    <circle cx="26" cy="20" r="4" fill="white" opacity="0.4"/>
    <circle cx="34" cy="10" r="3" fill="white" opacity="0.35"/>
    <!-- Thin leaf stems -->
    <line x1="30" y1="170" x2="20" y2="170" stroke="white" stroke-width="0.6" opacity="0.5"/>
    <line x1="30" y1="155" x2="42" y2="155" stroke="white" stroke-width="0.6" opacity="0.5"/>
    <line x1="30" y1="138" x2="18" y2="138" stroke="white" stroke-width="0.6" opacity="0.5"/>
    <line x1="30" y1="122" x2="44" y2="122" stroke="white" stroke-width="0.6" opacity="0.5"/>
    <line x1="30" y1="105" x2="19" y2="105" stroke="white" stroke-width="0.6" opacity="0.5"/>
    <line x1="30" y1="90" x2="42" y2="90" stroke="white" stroke-width="0.6" opacity="0.5"/>
    <line x1="30" y1="74" x2="20" y2="74" stroke="white" stroke-width="0.6" opacity="0.5"/>
    <line x1="30" y1="60" x2="40" y2="60" stroke="white" stroke-width="0.6" opacity="0.5"/>
  </g>
</svg>
